<svg width="24" height="24" viewBox="0 0 24 24" fill="none" xmlns="http://www.w3.org/2000/svg">
<path d="M23.641 14.9019C22.0377 21.334 15.5211 25.2438 9.09828 23.6405C2.66609 22.0372 -1.24386 15.5208 0.3595 9.09808C1.96286 2.66603 8.47007 -1.24383 14.9023 0.359492C21.3251 1.95344 25.2444 8.46987 23.641 14.9019Z" fill="#F7931A"/>
<path d="M17.7136 10.5045C17.948 8.91074 16.7386 8.04824 15.0698 7.47637L15.6136 5.31074L14.3011 4.98262L13.7761 7.09199C13.4292 7.00762 13.073 6.92324 12.7167 6.84824L13.2417 4.72949L11.9292 4.40137L11.3948 6.55762C11.1042 6.49199 10.823 6.42637 10.5511 6.36074V6.35137L8.73234 5.90137L8.38546 7.30762C8.38546 7.30762 9.36046 7.53262 9.34171 7.54199C9.87609 7.67324 9.96984 8.02949 9.95109 8.31074L9.33234 10.7764C9.36984 10.7857 9.41671 10.7951 9.47296 10.8232C9.42609 10.8139 9.37921 10.8045 9.33234 10.7857L8.46984 14.2357C8.40421 14.3951 8.23546 14.6389 7.86984 14.5451C7.87921 14.5639 6.91359 14.3107 6.91359 14.3107L6.25734 15.8201L7.97296 16.2514C8.29171 16.3357 8.60109 16.4107 8.91046 16.4951L8.36671 18.6795L9.67921 19.0076L10.223 16.842C10.5792 16.9357 10.9355 17.0295 11.273 17.1139L10.7386 19.2701L12.0511 19.5982L12.5948 17.4139C14.8448 17.8357 16.5323 17.667 17.2355 15.6326C17.8073 14.0014 17.2073 13.0545 16.0261 12.4357C16.898 12.2389 17.5448 11.667 17.7136 10.5045ZM14.7042 14.7232C14.3011 16.3545 11.5448 15.4732 10.6542 15.2482L11.3761 12.3514C12.2667 12.5764 15.1355 13.017 14.7042 14.7232ZM15.1167 10.4764C14.7417 11.967 12.4542 11.2076 11.7136 11.0201L12.3698 8.39512C13.1105 8.58262 15.5011 8.92949 15.1167 10.4764Z" fill="white"/>
</svg>
