<svg width="14" height="10" viewBox="0 0 14 10" fill="none" xmlns="http://www.w3.org/2000/svg">
<path d="M6.99998 0.625C4.08331 0.625 1.59248 2.43917 0.583313 5C1.59248 7.56083 4.08331 9.375 6.99998 9.375C9.91665 9.375 12.4075 7.56083 13.4166 5C12.4075 2.43917 9.91665 0.625 6.99998 0.625ZM6.99998 7.91667C5.38998 7.91667 4.08331 6.61 4.08331 5C4.08331 3.39 5.38998 2.08333 6.99998 2.08333C8.60998 2.08333 9.91665 3.39 9.91665 5C9.91665 6.61 8.60998 7.91667 6.99998 7.91667ZM6.99998 3.25C6.03165 3.25 5.24998 4.03167 5.24998 5C5.24998 5.96833 6.03165 6.75 6.99998 6.75C7.96831 6.75 8.74998 5.96833 8.74998 5C8.74998 4.03167 7.96831 3.25 6.99998 3.25Z" fill="#D9D9D9"/>
</svg>
