<svg width="139" height="31" viewBox="0 0 139 31" fill="none" xmlns="http://www.w3.org/2000/svg">
<path d="M6.0607 0.456055H0.25V10.3489H6.0607V0.456055Z" fill="#2C3138"/>
<path d="M11.8719 10.3486H6.06116V20.2415H11.8719V10.3486Z" fill="#2C3138"/>
<path d="M17.6819 20.2412H11.8712V30.1341H17.6819V20.2412Z" fill="#2C3138"/>
<path d="M23.4928 10.3486H17.6821V20.2415H23.4928V10.3486Z" fill="#2C3138"/>
<path d="M29.3034 0.456055H23.4927V10.3489H29.3034V0.456055Z" fill="#2C3138"/>
<path d="M35.533 30.1348C34.3533 30.1348 33.2929 29.9179 32.3516 29.4839C31.4104 29.0499 30.667 28.4084 30.1216 27.5594C29.5763 26.7103 29.3037 25.6622 29.3037 24.4151C29.3037 23.342 29.4977 22.4553 29.8855 21.7547C30.2637 21.0627 30.8106 20.4822 31.4731 20.0696C32.1435 19.6487 32.9008 19.3289 33.7449 19.1102C34.6075 18.8883 35.4843 18.729 36.3689 18.6336C37.4596 18.5181 38.3442 18.4129 39.0228 18.318C39.7014 18.2231 40.1961 18.0746 40.5067 17.8726C40.8176 17.6701 40.9731 17.3544 40.9733 16.9256V16.8511C40.9733 15.9187 40.7026 15.1965 40.1613 14.6847C39.6199 14.1728 38.8403 13.9169 37.8223 13.9171C36.7476 13.9171 35.8972 14.1564 35.2712 14.6351C34.6453 15.1138 34.2231 15.6792 34.0048 16.3312L29.9085 15.7369C30.2316 14.5816 30.7648 13.614 31.5082 12.834C32.2517 12.054 33.1606 11.468 34.235 11.0759C35.3095 10.6838 36.4971 10.4878 37.798 10.4878C38.7 10.4885 39.5988 10.5966 40.4763 10.8099C41.3426 11.0147 42.1671 11.3729 42.9124 11.8684C43.6475 12.3589 44.2393 13.0253 44.6878 13.8676C45.1363 14.7098 45.3605 15.7621 45.3605 17.0244V29.7511H41.144V27.1388H40.9985C40.732 27.6671 40.3583 28.1602 39.8776 28.6181C39.3968 29.0761 38.7949 29.4435 38.072 29.7205C37.3494 29.9967 36.5031 30.1348 35.533 30.1348ZM36.672 26.8417C37.5529 26.8417 38.3164 26.6624 38.9627 26.3039C39.609 25.9454 40.1077 25.4687 40.4588 24.8738C40.8075 24.2885 40.9898 23.6155 40.9852 22.9304V20.6889C40.8478 20.8047 40.6154 20.9121 40.2881 21.0109C39.9275 21.1178 39.5614 21.2046 39.1916 21.2707C38.7874 21.3451 38.3875 21.4111 37.9916 21.4689C37.5958 21.5266 37.2524 21.5761 36.9615 21.6174C36.3071 21.7082 35.7213 21.8568 35.2042 22.0632C34.687 22.2696 34.279 22.5564 33.9801 22.9236C33.6813 23.2909 33.5319 23.7634 33.5319 24.3409C33.5319 25.1666 33.8267 25.7897 34.4165 26.2102C35.0063 26.6308 35.7581 26.8413 36.672 26.8417Z" fill="#2C3138"/>
<path d="M49.7837 29.7502V10.7346H54.0376V13.9044H54.2315C54.571 12.8068 55.1548 11.9588 55.9828 11.3603C56.8108 10.7619 57.7581 10.4627 58.8246 10.4629C59.0671 10.4629 59.3398 10.4732 59.6427 10.4937C59.8969 10.5083 60.1499 10.5394 60.4002 10.5866V14.7087C60.2142 14.6425 59.9214 14.5826 59.5217 14.529C59.1379 14.4766 58.7513 14.4497 58.3641 14.4486C57.5643 14.4486 56.8473 14.624 56.2131 14.9747C55.5938 15.3112 55.0765 15.8143 54.7169 16.4295C54.3531 17.0483 54.1712 17.7622 54.1714 18.571V29.7502H49.7837Z" fill="#2C3138"/>
<path d="M65.5271 8.03568C64.8319 8.03568 64.234 7.79842 63.7334 7.32389C63.2329 6.84936 62.9824 6.27786 62.9821 5.60937C62.9821 4.93277 63.2325 4.35731 63.7334 3.88297C64.2344 3.40863 64.8322 3.17128 65.5271 3.1709C66.2299 3.1709 66.8297 3.40826 67.3266 3.88297C67.8234 4.35768 68.0719 4.93315 68.0721 5.60937C68.0721 6.27786 67.8236 6.84936 67.3266 7.32389C66.8295 7.79842 66.2297 8.03568 65.5271 8.03568ZM63.3214 29.7502V10.7345H67.7084V29.7502H63.3214Z" fill="#2C3138"/>
<path d="M77.5724 30.1341C76.3927 30.1341 75.3323 29.9172 74.3913 29.4832C73.4502 29.0492 72.7069 28.4077 72.1613 27.5587C71.616 26.7096 71.3434 25.6615 71.3434 24.4144C71.3434 23.3414 71.5373 22.4546 71.9252 21.754C72.3034 21.062 72.8503 20.4815 73.5127 20.0689C74.1832 19.648 74.9405 19.3282 75.7846 19.1095C76.6472 18.8876 77.524 18.7283 78.4086 18.6329C79.4983 18.5174 80.383 18.4122 81.0625 18.3173C81.742 18.2224 82.2369 18.0738 82.5472 17.8716C82.8581 17.6691 83.0136 17.3535 83.0138 16.9246V16.8502C83.0138 15.9177 82.7431 15.1956 82.2018 14.6837C81.6604 14.1718 80.8808 13.9159 79.8629 13.9161C78.7882 13.9161 77.9379 14.1555 77.3117 14.6341C76.6856 15.1128 76.2634 15.6782 76.0453 16.3303L71.949 15.7359C72.2721 14.5807 72.8053 13.613 73.5487 12.833C74.2922 12.053 75.2011 11.467 76.2755 11.0749C77.35 10.6829 78.5376 10.4868 79.8385 10.4868C80.7405 10.4875 81.6393 10.5956 82.5168 10.8089C83.3831 11.0137 84.2076 11.3719 84.9529 11.8674C85.6879 12.3579 86.2797 13.0243 86.7283 13.8666C87.177 14.7089 87.4012 15.7611 87.401 17.0234V29.7501H83.1836V27.1378H83.0382C82.7717 27.6661 82.398 28.1593 81.9172 28.6172C81.4364 29.0751 80.8345 29.4426 80.1114 29.7198C79.3883 29.996 78.5419 30.1341 77.5724 30.1341ZM78.7117 26.841C79.5922 26.841 80.3556 26.6617 81.0021 26.3032C81.6486 25.9447 82.1473 25.468 82.4982 24.8731C82.8469 24.2878 83.0292 23.6149 83.0246 22.9297V20.6882C82.8872 20.804 82.6549 20.9114 82.3278 21.0102C81.9672 21.1171 81.6011 21.2039 81.2312 21.2701C80.8271 21.3444 80.4271 21.4104 80.0313 21.4682C79.6355 21.5259 79.2921 21.5754 79.0012 21.6167C78.3468 21.7075 77.761 21.8561 77.2438 22.0625C76.7267 22.2689 76.3187 22.5557 76.0198 22.9229C75.721 23.2902 75.5715 23.7627 75.5715 24.3402C75.5715 25.1659 75.8664 25.789 76.4562 26.2095C77.0459 26.6301 77.7978 26.8406 78.7117 26.841Z" fill="#2C3138"/>
<path d="M92.0192 29.7511V4.39697H96.4063V13.88H96.5881C96.8142 13.418 97.1333 12.9248 97.5456 12.4007C97.9579 11.8765 98.5153 11.4267 99.2179 11.0513C99.9207 10.6756 100.818 10.4878 101.908 10.4878C103.346 10.4878 104.645 10.8613 105.805 11.6082C106.964 12.3552 107.885 13.457 108.568 14.9136C109.251 16.3706 109.593 18.1554 109.593 20.268C109.593 22.3561 109.258 24.1305 108.587 25.5913C107.916 27.052 107.003 28.1663 105.848 28.934C104.693 29.7015 103.384 30.0853 101.922 30.0853C100.855 30.0853 99.9703 29.9037 99.2675 29.5405C98.5647 29.1773 98.0014 28.7379 97.5775 28.2222C97.1526 27.7064 96.8234 27.2173 96.5898 26.755H96.3332V29.7511H92.0192ZM96.3216 20.2434C96.3216 21.4732 96.4932 22.5502 96.8366 23.4743C97.18 24.3984 97.6768 25.1185 98.3272 25.6346C98.9775 26.151 99.7673 26.4092 100.697 26.4092C101.666 26.4092 102.478 26.1431 103.132 25.6108C103.787 25.0785 104.282 24.3478 104.617 23.4186C104.952 22.4903 105.12 21.4319 105.12 20.2434C105.12 19.0632 104.955 18.015 104.623 17.0988C104.292 16.1826 103.799 15.4645 103.145 14.9447C102.49 14.4247 101.674 14.1647 100.697 14.1647C99.7596 14.1647 98.9638 14.4164 98.3092 14.9198C97.6546 15.4232 97.1598 16.1289 96.8247 17.0368C96.4893 17.9455 96.3216 19.0143 96.3216 20.2434Z" fill="#2C3138"/>
<path d="M117.724 4.39697V29.7511H113.337V4.39697H117.724Z" fill="#2C3138"/>
<path d="M130.473 30.1216C128.606 30.1216 126.996 29.7234 125.643 28.9269C124.29 28.1305 123.25 26.9998 122.523 25.5347C121.795 24.0698 121.432 22.3428 121.432 20.3538C121.432 18.3978 121.797 16.679 122.529 15.1975C123.26 13.716 124.284 12.5605 125.601 11.7311C126.917 10.9019 128.465 10.4868 130.242 10.4858C131.389 10.4858 132.474 10.6737 133.496 11.0493C134.514 11.4218 135.44 12.0151 136.212 12.7885C136.999 13.5728 137.619 14.5694 138.072 15.7783C138.524 16.9871 138.75 18.4257 138.75 20.094V21.468H123.492V18.4474H134.545C134.536 17.5889 134.355 16.8234 133.999 16.151C133.656 15.4918 133.143 14.9415 132.515 14.5602C131.88 14.172 131.143 13.9781 130.303 13.9783C129.406 13.9783 128.618 14.199 127.94 14.6405C127.274 15.0679 126.729 15.6653 126.358 16.3737C125.982 17.0877 125.791 17.8697 125.782 18.7197V21.3565C125.782 22.4626 125.98 23.4096 126.376 24.1977C126.772 24.9858 127.326 25.5884 128.037 26.0054C128.748 26.422 129.58 26.6304 130.533 26.6305C131.171 26.6305 131.749 26.5376 132.266 26.3518C132.766 26.1767 133.224 25.8963 133.611 25.5288C133.991 25.1657 134.278 24.7159 134.472 24.1793L138.568 24.6497C138.31 25.7557 137.819 26.7193 137.096 27.5404C136.373 28.3616 135.45 28.997 134.326 29.4469C133.203 29.8967 131.919 30.1216 130.473 30.1216Z" fill="#2C3138"/>
</svg>
